<svg xmlns="http://www.w3.org/2000/svg" viewBox="0 0 45.784 46.209">
  <path fill="#000000" fill-rule="evenodd"
    d="M19.66,35.989C25.202,25.477 27.517,18.562 36.678,16.043l-0.172,-0.273c-0.028,-0.034 -0.122,-0.17 -0.15,-0.205 -9.71,0.812 -14.55,1.232 -24.632,0.06 -0.088,0.141 -0.173,0.286 -0.257,0.432l0.034,0.007c3.365,0.77 9.204,1.287 10.986,4.338 2.407,3.672 -2.39,11.176 -4.15,14.927 0.399,0.21 0.907,0.482 1.323,0.66"/>
  <path fill="#000000" fill-rule="evenodd"
    d="M16.931,34.392c2.18,-3.608 6.454,-10.567 3.993,-13.92 -1.603,3.314 -5.832,4.087 -11.817,4.227 0.922,3.47 4.826,7.57 7.824,9.693M22.082,11.205a1.912,1.912 0,1 1,0.186 3.819,1.912 1.912,0 0,1 -0.186,-3.82m6.372,-0.98a2.393,2.393 0,1 1,0.233 4.78,2.393 2.393,0 0,1 -0.233,-4.78"/>
</svg>
